<svg width="15" height="15" viewBox="0 0 15 15" fill="none" xmlns="http://www.w3.org/2000/svg">
<path d="M0.267911 8.34172C0.0928129 8.09379 -0.00084359 7.79755 -8.72007e-05 7.49404C0.000669189 7.19053 0.0958023 6.89477 0.272133 6.64771C0.45507 6.39727 0.708367 6.20733 1.00107 6.10321L2.93316 5.47429C3.41744 5.3129 3.85756 5.04115 4.21876 4.68049C4.57996 4.31984 4.85235 3.88016 5.01442 3.39618L5.64766 1.43906C5.75244 1.14971 5.94539 0.900518 6.19931 0.726604C6.45323 0.55269 6.75532 0.462822 7.06303 0.469659C7.37074 0.476495 7.66855 0.579695 7.91449 0.764715C8.16044 0.949735 8.34212 1.20725 8.43393 1.50097L9.06436 3.43557C9.22559 3.92003 9.49731 4.36036 9.85803 4.72176C10.2188 5.08316 10.6586 5.35572 11.1428 5.51791L13.096 6.15386C13.3838 6.25627 13.6324 6.4458 13.8075 6.69609C13.9825 6.94638 14.0751 7.24499 14.0725 7.55037C14.0698 7.85575 13.9721 8.15271 13.7928 8.39995C13.6135 8.64719 13.3616 8.83241 13.0721 8.92984L11.102 9.57283C10.6308 9.73424 10.2023 10.0004 9.84888 10.3514C9.49544 10.7023 9.22624 11.1289 9.06155 11.5989L8.43253 13.5546C8.32989 13.8422 8.14024 14.0907 7.88992 14.2656C7.63959 14.4405 7.341 14.5332 7.03561 14.5307C6.73022 14.5282 6.43317 14.4308 6.18571 14.2518C5.93826 14.0728 5.75266 13.8213 5.6547 13.5321L5.02849 11.5989C4.86688 11.112 4.59323 10.6698 4.22956 10.3079C3.86588 9.94595 3.42232 9.67443 2.93457 9.51514L0.977143 8.87919C0.690073 8.77789 0.442404 8.58935 0.267911 8.34172Z" fill="#358BB9"/>
</svg>
