<svg width="20" height="21" viewBox="0 0 20 21" fill="none" xmlns="http://www.w3.org/2000/svg">
<path d="M10.001 7.57373C9.20535 7.57373 8.44229 7.8898 7.87968 8.45241C7.31707 9.01502 7.001 9.77808 7.001 10.5737C7.001 11.3694 7.31707 12.1324 7.87968 12.6951C8.44229 13.2577 9.20535 13.5737 10.001 13.5737C10.7967 13.5737 11.5597 13.2577 12.1223 12.6951C12.6849 12.1324 13.001 11.3694 13.001 10.5737C13.001 9.77808 12.6849 9.01502 12.1223 8.45241C11.5597 7.8898 10.7967 7.57373 10.001 7.57373ZM10.001 5.57373C11.3271 5.57373 12.5989 6.10052 13.5365 7.0382C14.4742 7.97588 15.001 9.24765 15.001 10.5737C15.001 11.8998 14.4742 13.1716 13.5365 14.1093C12.5989 15.0469 11.3271 15.5737 10.001 15.5737C8.67492 15.5737 7.40315 15.0469 6.46547 14.1093C5.52779 13.1716 5.001 11.8998 5.001 10.5737C5.001 9.24765 5.52779 7.97588 6.46547 7.0382C7.40315 6.10052 8.67492 5.57373 10.001 5.57373ZM16.501 5.32373C16.501 5.65525 16.3693 5.97319 16.1349 6.20761C15.9005 6.44203 15.5825 6.57373 15.251 6.57373C14.9195 6.57373 14.6015 6.44203 14.3671 6.20761C14.1327 5.97319 14.001 5.65525 14.001 5.32373C14.001 4.99221 14.1327 4.67427 14.3671 4.43985C14.6015 4.20543 14.9195 4.07373 15.251 4.07373C15.5825 4.07373 15.9005 4.20543 16.1349 4.43985C16.3693 4.67427 16.501 4.99221 16.501 5.32373ZM10.001 2.57373C7.527 2.57373 7.123 2.58073 5.972 2.63173C5.188 2.66873 4.662 2.77373 4.174 2.96373C3.76583 3.1141 3.39672 3.35437 3.094 3.66673C2.78127 3.96935 2.54066 4.33847 2.39 4.74673C2.2 5.23673 2.095 5.76173 2.059 6.54473C2.007 7.64873 2 8.03473 2 10.5737C2 13.0487 2.007 13.4517 2.058 14.6027C2.095 15.3857 2.2 15.9127 2.389 16.3997C2.559 16.8347 2.759 17.1477 3.091 17.4797C3.428 17.8157 3.741 18.0167 4.171 18.1827C4.665 18.3737 5.191 18.4797 5.971 18.5157C7.075 18.5677 7.461 18.5737 10 18.5737C12.475 18.5737 12.878 18.5667 14.029 18.5157C14.811 18.4787 15.337 18.3737 15.826 18.1847C16.2342 18.0344 16.6033 17.7941 16.906 17.4817C17.243 17.1457 17.444 16.8327 17.61 16.4017C17.8 15.9097 17.906 15.3837 17.942 14.6017C17.994 13.4987 18 13.1117 18 10.5737C18 8.09973 17.993 7.69573 17.942 6.54473C17.905 5.76273 17.799 5.23473 17.61 4.74673C17.4596 4.33856 17.2194 3.96945 16.907 3.66673C16.6044 3.354 16.2353 3.11339 15.827 2.96273C15.337 2.77273 14.811 2.66773 14.029 2.63173C12.926 2.57973 12.54 2.57373 10 2.57373M10 0.57373C12.717 0.57373 13.056 0.58373 14.123 0.63373C15.187 0.68373 15.913 0.850731 16.55 1.09873C17.21 1.35273 17.766 1.69673 18.322 2.25173C18.8307 2.75146 19.2242 3.3562 19.475 4.02373C19.722 4.66073 19.89 5.38673 19.94 6.45173C19.987 7.51773 20 7.85673 20 10.5737C20 13.2907 19.99 13.6297 19.94 14.6957C19.89 15.7617 19.722 16.4857 19.475 17.1237C19.2242 17.7913 18.8307 18.396 18.322 18.8957C17.8223 19.4044 17.2175 19.7979 16.55 20.0487C15.913 20.2957 15.187 20.4637 14.123 20.5137C13.056 20.5607 12.717 20.5737 10 20.5737C7.283 20.5737 6.944 20.5637 5.877 20.5137C4.813 20.4637 4.088 20.2957 3.45 20.0487C2.78247 19.7979 2.17773 19.4044 1.678 18.8957C1.16931 18.396 0.775816 17.7913 0.525 17.1237C0.277 16.4867 0.11 15.7607 0.06 14.6957C0.0119999 13.6297 0 13.2907 0 10.5737C0 7.85673 0.00999994 7.51773 0.06 6.45173C0.11 5.38573 0.277 4.66173 0.525 4.02373C0.775816 3.3562 1.16931 2.75146 1.678 2.25173C2.17773 1.74304 2.78247 1.34955 3.45 1.09873C4.087 0.850731 4.812 0.68373 5.877 0.63373C6.945 0.58673 7.284 0.57373 10.001 0.57373" fill="#358BB9"/>
</svg>
