<svg width="52" height="53" viewBox="0 0 52 53" fill="none" xmlns="http://www.w3.org/2000/svg">
<path d="M42.2682 0.525328C42.113 0.423051 41.9042 0.465978 41.802 0.621207C41.6997 0.776437 41.7426 0.985187 41.8978 1.08746L42.2682 0.525328ZM2.48471 52.0573C2.62678 52.1772 2.83914 52.1593 2.95903 52.0172L4.91276 49.7021C5.03265 49.56 5.01467 49.3476 4.87261 49.2278C4.73054 49.1079 4.51818 49.1258 4.39829 49.2679L2.66164 51.3258L0.603758 49.5891C0.461691 49.4693 0.249332 49.4872 0.129441 49.6293C0.00955081 49.7714 0.0275283 49.9837 0.169596 50.1036L2.48471 52.0573ZM41.8978 1.08746C46.3886 4.04635 49.0549 6.53661 50.3317 8.6783C50.9668 9.74367 51.2508 10.7108 51.2553 11.6001C51.2598 12.4872 50.9862 13.3232 50.4628 14.1288C49.4058 15.7558 47.3444 17.2372 44.5834 18.6842C41.8319 20.1263 38.4374 21.5086 34.7646 22.9609C27.4376 25.8582 19.0109 29.0286 12.5921 33.4736C6.16325 37.9256 1.67881 43.7064 2.3664 51.8285L3.03719 51.7717C2.3784 43.9899 6.64535 38.4106 12.9754 34.0271C19.3155 29.6365 27.6554 26.4959 35.0122 23.5869C38.6813 22.1361 42.1081 20.7416 44.8959 19.2805C47.6742 17.8244 49.8702 16.2765 51.0273 14.4955C51.611 13.5971 51.9337 12.6344 51.9285 11.5967C51.9232 10.561 51.5916 9.4771 50.9099 8.33359C49.5531 6.0575 46.7813 3.49888 42.2682 0.525328L41.8978 1.08746Z" fill="#7D298A"/>
</svg>
