<svg width="37" height="44" viewBox="0 0 37 44" fill="none" xmlns="http://www.w3.org/2000/svg">
<path d="M35.7784 43.3452C35.8283 43.5243 36.014 43.6289 36.193 43.579C36.3721 43.529 36.4767 43.3433 36.4268 43.1643L35.7784 43.3452ZM0.928636 27.4349L0.598402 27.5001L0.928636 27.4349ZM17.4906 0.178115C17.3087 0.140032 17.1303 0.256661 17.0922 0.438613L16.4716 3.40369C16.4335 3.58564 16.5502 3.76402 16.7321 3.8021C16.9141 3.84018 17.0924 3.72356 17.1305 3.5416L17.6822 0.905977L20.3178 1.45762C20.4997 1.4957 20.6781 1.37907 20.7162 1.19712C20.7543 1.01517 20.6377 0.836796 20.4557 0.798713L17.4906 0.178115ZM36.4268 43.1643C35.3906 39.4515 32.4813 35.853 28.7883 32.7393C25.0886 29.62 20.5676 26.9578 16.2488 25.1265C11.94 23.2995 7.78924 22.2813 4.83827 22.4948C3.363 22.6015 2.1323 23.0203 1.35124 23.8613C0.557503 24.716 0.290258 25.9373 0.598402 27.5001L1.25887 27.3698C0.977976 25.9453 1.24191 24.9683 1.84451 24.3194C2.45978 23.657 3.49056 23.2672 4.88684 23.1662C7.67898 22.9642 11.7117 23.9339 15.986 25.7463C20.2503 27.5545 24.712 30.183 28.3543 33.2539C32.0032 36.3304 34.7949 39.8213 35.7784 43.3452L36.4268 43.1643ZM0.598402 27.5001C0.835002 28.7 1.50813 29.476 2.48919 29.8258C3.44377 30.1661 4.64493 30.0873 5.9387 29.7041C8.53217 28.936 11.6614 26.897 14.3583 24.0485C19.7509 18.3528 23.5465 9.25992 17.7034 0.323369L17.1399 0.691768C22.7409 9.25801 19.153 18.0052 13.8695 23.5856C11.2284 26.3752 8.19645 28.3333 5.74752 29.0587C4.5201 29.4222 3.47975 29.4643 2.71526 29.1917C1.97725 28.9286 1.45374 28.3581 1.25887 27.3698L0.598402 27.5001Z" fill="#7D298A"/>
</svg>
