<svg width="61" height="12" viewBox="0 0 61 12" fill="none" xmlns="http://www.w3.org/2000/svg">
<path d="M59.8546 11.3521C59.9465 11.5137 60.152 11.5701 60.3136 11.4782C60.4752 11.3863 60.5317 11.1808 60.4398 11.0192L59.8546 11.3521ZM1.51831 0.768571C1.34195 0.709786 1.15133 0.805096 1.09255 0.981451L0.134588 3.85533C0.0758027 4.03168 0.171112 4.2223 0.347467 4.28108C0.523823 4.33987 0.714441 4.24456 0.773226 4.0682L1.62474 1.51365L4.1793 2.36517C4.35565 2.42395 4.54627 2.32864 4.60506 2.15229C4.66384 1.97593 4.56853 1.78531 4.39218 1.72653L1.51831 0.768571ZM60.4398 11.0192C59.1014 8.66638 57.3493 7.1324 55.2821 6.21285C53.2213 5.29612 50.867 4.99865 48.3317 5.0825C43.2764 5.24968 37.395 6.94173 31.519 8.39763C25.6135 9.86086 19.7025 11.0897 14.4909 10.4023C9.31346 9.71935 4.81615 7.14382 1.71292 0.937362L1.11081 1.23842C4.31868 7.65417 9.01454 10.3589 14.4029 11.0697C19.7571 11.776 25.7847 10.512 31.6809 9.05106C37.6067 7.58282 43.3903 5.91947 48.3539 5.75532C50.8281 5.67349 53.0717 5.96637 55.0085 6.82792C56.939 7.68665 58.5844 9.11887 59.8546 11.3521L60.4398 11.0192Z" fill="#7D298A"/>
</svg>
